<?xml version="1.0" encoding="utf-8"?>
<!-- Generator: Adobe Illustrator 21.0.0, SVG Export Plug-In . SVG Version: 6.00 Build 0)  -->
<svg version="1.1" id="Layer_1" xmlns="http://www.w3.org/2000/svg" xmlns:xlink="http://www.w3.org/1999/xlink" x="0px" y="0px"
	 viewBox="0 0 595.3 841.9" style="enable-background:new 0 0 595.3 841.9;" xml:space="preserve">
<style type="text/css">
	.st0{fill:#FF9900;}
</style>
<g>
	<path class="st0" d="M589.8,499.7c0-174.2-292.1-452.8-292.1-452.8S5.5,325.5,5.5,499.7c0,163.8,107.7,290.5,255.9,305.8l-0.2-48.6
		c-53.7-23.7-95.5-115-95.5-222.6c0-125.6,64.6-196.2,131.9-196.2s131,74.4,131,200c0,107.6-41.9,195.1-95.5,218.8l0.9,49
		C482.2,790.7,589.8,663.5,589.8,499.7z"/>
</g>
<g>
	<path class="st0" d="M316,769.4c0-22.9,12.9-53.1,28.8-67.5c15.8-14.2,30.8-33.5,32.9-42.8c2.4-9.3,4.2-24.2,4.2-33.1
		c0-8.9,0-34.9,0-57.7V488c0-22.9-7.1-41.5-15.7-41.5s-15.7,18.7-15.7,41.5v80.3c0,22.9-8.4,41.5-18.7,41.5
		c-10.2,0-18.7-18.7-18.7-41.5V488c0-22.9-7.1-41.5-15.7-41.5s-15.7,18.7-15.7,41.5v80.3c0,22.9-8.4,41.5-18.7,41.5
		c-10.2,0-18.7-18.7-18.7-41.5V488c0-22.9-7.1-41.5-15.7-41.5c-8.6,0-15.7,18.7-15.7,41.5v80.3c0,22.9,0.7,48.8,1.6,57.5
		c0.9,8.7,3.3,23.5,5.1,32.6s16,28.6,31.3,43.1c15.3,14.6,27.8,45.1,27.8,67.9V806h36.8v-36.6H316z"/>
</g>
</svg>
