<?xml version="1.0" encoding="utf-8"?>
<!-- Generator: Adobe Illustrator 21.0.0, SVG Export Plug-In . SVG Version: 6.00 Build 0)  -->
<svg version="1.1" id="Layer_1" xmlns="http://www.w3.org/2000/svg" xmlns:xlink="http://www.w3.org/1999/xlink" x="0px" y="0px"
	 viewBox="0 0 595.3 841.9" style="enable-background:new 0 0 595.3 841.9;" xml:space="preserve">
<style type="text/css">
	.st0{fill:#FFFFFF;}
</style>
<g>
	<path class="st0" d="M453,401.9c0-95.7-160.5-248.8-160.5-248.8S132,306.2,132,401.9c0,90,59.2,159.6,140.6,168l-0.1-26.7
		C243,530.2,220,480,220,420.9c0-69,35.5-107.8,72.5-107.8s72,40.9,72,109.9c0,59.1-23,107.2-52.5,120.2l0.5,26.9
		C393.9,561.8,453,491.9,453,401.9z"/>
</g>
<g>
	<path class="st0" d="M302.6,550.1c0-12.6,7.1-29.2,15.8-37.1c8.7-7.8,16.9-18.4,18.1-23.5c1.3-5.1,2.3-13.3,2.3-18.2s0-19.2,0-31.7
		v-44.1c0-12.6-3.9-22.8-8.6-22.8s-8.6,10.3-8.6,22.8v44.1c0,12.6-4.6,22.8-10.3,22.8c-5.6,0-10.3-10.3-10.3-22.8v-44.1
		c0-12.6-3.9-22.8-8.6-22.8s-8.6,10.3-8.6,22.8v44.1c0,12.6-4.6,22.8-10.3,22.8c-5.6,0-10.3-10.3-10.3-22.8v-44.1
		c0-12.6-3.9-22.8-8.6-22.8c-4.7,0-8.6,10.3-8.6,22.8v44.1c0,12.6,0.4,26.8,0.9,31.6c0.5,4.8,1.8,12.9,2.8,17.9s8.8,15.7,17.2,23.7
		s15.3,24.8,15.3,37.3v20.1h20.2v-20.1H302.6z"/>
</g>
</svg>
