<?xml version="1.0" encoding="utf-8"?>
<!-- Generator: Adobe Illustrator 21.0.0, SVG Export Plug-In . SVG Version: 6.00 Build 0)  -->
<svg version="1.1" id="Layer_1" xmlns="http://www.w3.org/2000/svg" xmlns:xlink="http://www.w3.org/1999/xlink" x="0px" y="0px"
	 viewBox="0 0 595.3 841.9" style="enable-background:new 0 0 595.3 841.9;" xml:space="preserve">
<style type="text/css">
	.st0{fill:#EE2D74;}
	.st1{fill:none;}
	.st2{font-family:'Roboto-BoldCondensed';}
	.st3{font-size:82px;}
</style>
<path class="st0" d="M-24.8,335.8c0,95.7-71.9,173.2-160.5,173.2s-160.5-77.6-160.5-173.2S-185.3,117-185.3,117
	S-24.8,240.1-24.8,335.8z"/>
<path class="st0" d="M-263.6,561.8c0,95.7-71.9,173.2-160.5,173.2s-160.5-77.6-160.5-173.2S-424.1,313-424.1,313
	S-263.6,466.1-263.6,561.8z"/>
<g>
	<path class="st0" d="M-130-337.5c-5.6,0-10.2,12.2-10.2,27v52.1c0,14.9-5.5,27-12.1,27c-6.7,0-12.1-12.2-12.1-27v-52.1
		c0-14.9-4.6-27-10.2-27s-10.2,12.2-10.2,27v52.1c0,14.9-5.5,27-12.1,27c-6.7,0-12.1-12.2-12.1-27v-52.1c0-14.9-4.6-27-10.2-27
		c-5.6,0-10.2,12.2-10.2,27v52.1c0,14.9,0.5,31.7,1.1,37.3s2.1,15.2,3.3,21.2c1.3,6,10.4,18.6,20.4,28c10,9.4,18.1,29.3,18.1,44.2
		v230.3c0,14.9,5.4,27,11.9,27s11.9-12.2,11.9-27v-230.3c0-14.9,8.4-34.6,18.7-43.8s19.9-21.8,21.5-27.8c1.5-6,2.8-15.7,2.8-21.5
		c0-5.8,0-22.7,0-37.5v-52.1C-119.8-325.3-124.4-337.5-130-337.5z"/>
</g>
<g>
	<path class="st0" d="M453,401.9c0-95.7-160.5-248.8-160.5-248.8S132,306.2,132,401.9c0,90,59.2,159.6,140.6,168l-0.1-26.7
		C243,530.2,220,480,220,420.9c0-69,35.5-107.8,72.5-107.8s72,40.9,72,109.9c0,59.1-23,107.2-52.5,120.2l0.5,26.9
		C393.9,561.8,453,491.9,453,401.9z"/>
</g>
<g>
	<path class="st0" d="M882.4,410.5c0-69-30-125-67-125s-67,56-67,125c0,59.1,40.1,107.7,40.1,107.7c6.3,7.6,11.4,22,11.4,31.9v250.4
		c0,9.9,7,18,15.5,18c8.5,0,15.5-8.1,15.5-18V550.1c0-9.9,5.1-24.3,11.4-31.9C842.4,518.2,882.4,469.6,882.4,410.5z"/>
</g>
<g>
	<path class="st0" d="M302.6,550.1c0-12.6,7.1-29.2,15.8-37.1c8.7-7.8,16.9-18.4,18.1-23.5c1.3-5.1,2.3-13.3,2.3-18.2s0-19.2,0-31.7
		v-44.1c0-12.6-3.9-22.8-8.6-22.8c-4.7,0-8.6,10.3-8.6,22.8v44.1c0,12.6-4.6,22.8-10.3,22.8c-5.6,0-10.3-10.3-10.3-22.8v-44.1
		c0-12.6-3.9-22.8-8.6-22.8s-8.6,10.3-8.6,22.8v44.1c0,12.6-4.6,22.8-10.3,22.8c-5.6,0-10.3-10.3-10.3-22.8v-44.1
		c0-12.6-3.9-22.8-8.6-22.8c-4.7,0-8.6,10.3-8.6,22.8v44.1c0,12.6,0.4,26.8,0.9,31.6c0.5,4.8,1.8,12.9,2.8,17.9s8.8,15.7,17.2,23.7
		c8.4,8,15.3,24.8,15.3,37.3v20.1h20.2V550.1z"/>
</g>
<rect x="81" y="578" class="st1" width="423" height="114"/>
<text transform="matrix(1 0 0 1 125.698 640.4609)" class="st0 st2 st3">dropfoood</text>
</svg>
